# xmcd
#
# Track frame offsets:
#	150
#	10019
#	25561
#	34165
#	44134
#	68034
#	77808
#	89560
#	97440
#	108691
#	122004
#	132252
#	143893
#	163642
#
# Disc length: 2328 seconds
#
# Revision: 1
# Processed by: cddbd v1.5.2PL0 Copyright (c) Steve Scherf et al.
# Submitted via: audiograbber 1.83.01
#
DISCID=c309160e
DTITLE=The Shamrocks - The shamrocks
DYEAR=1965
DGENRE=Bluesrock
TTITLE0=Shame, shame, shame
TTITLE1=Dowh home special
TTITLE2=What's all this
TTITLE3=Dusty road
TTITLE4=Rocks in my bed
TTITLE5=Sticks and stones
TTITLE6=Road runner
TTITLE7=Howling for my baby
TTITLE8=Big boss man
TTITLE9=Nursery rhyme
TTITLE10=I'm mad
TTITLE11=Walking the boogie
TTITLE12=Smoke stack lightning
TTITLE13=Got my mojo working
EXTD=
EXTT0=
EXTT1=
EXTT2=
EXTT3=
EXTT4=
EXTT5=
EXTT6=
EXTT7=
EXTT8=
EXTT9=
EXTT10=
EXTT11=
EXTT12=
EXTT13=
PLAYORDER=
